<svg width="53" height="51" viewBox="0 0 53 51" fill="none" xmlns="http://www.w3.org/2000/svg">
<path fill-rule="evenodd" clip-rule="evenodd" d="M37.1929 42.8015C35.1636 42.8015 33.5178 44.4473 33.5178 46.4766C33.5178 48.5059 35.1636 50.1516 37.1929 50.1516C39.2222 50.1516 40.8679 48.5059 40.8679 46.4766C40.8679 44.4473 39.2222 42.8015 37.1929 42.8015Z" fill="#5CBB5F"/>
<path fill-rule="evenodd" clip-rule="evenodd" d="M23.1133 42.8015C21.084 42.8015 19.4382 44.4473 19.4382 46.4766C19.4382 48.5059 21.084 50.1516 23.1133 50.1516C25.1426 50.1516 26.7883 48.5059 26.7883 46.4766C26.7883 44.4473 25.1426 42.8015 23.1133 42.8015Z" fill="#5CBB5F"/>
<path fill-rule="evenodd" clip-rule="evenodd" d="M51.4327 10.2421H13.0364L12.0043 2.57124C11.8579 1.46245 11.2373 0.988251 10.1354 0.988251H2.56916C1.55103 0.988251 0.728149 1.81113 0.728149 2.82926C0.728149 3.8474 1.55103 4.67028 2.56916 4.67028H8.55942L12.8551 30.8001C13.5734 35.298 14.5985 39.6495 20.4423 39.6495H40.6586C46.5791 39.6495 47.2277 35.4235 48.2876 31.1767L52.7995 13.1431C53.1482 11.7414 53.2319 10.2421 51.4327 10.2421ZM47.7646 18.5685H22.7506C21.7394 18.5685 20.9165 19.3984 20.9165 20.4026C20.9165 21.4137 21.7394 22.2366 22.7506 22.2366H46.8441L45.7981 26.4347H27.2485C26.2373 26.4347 25.4144 27.2645 25.4144 28.2687C25.4144 29.2799 26.2443 30.1027 27.2485 30.1027H44.8845L44.6893 30.8838C44.1105 33.206 43.978 35.9605 40.6656 35.9605H20.4423C16.9416 35.9605 16.8579 32.8154 16.4395 30.3119L13.7059 13.9032H48.9292L47.7646 18.5685Z" fill="#5CBB5F"/>
</svg>
