<?xml version="1.0" encoding="utf-8"?>
<!-- Generator: Adobe Illustrator 25.2.0, SVG Export Plug-In . SVG Version: 6.00 Build 0)  -->
<svg version="1.1" id="Layer_1" xmlns="http://www.w3.org/2000/svg" xmlns:xlink="http://www.w3.org/1999/xlink" x="0px" y="0px"
	 viewBox="0 0 1669 386.8" style="enable-background:new 0 0 1669 386.8;" xml:space="preserve">
<style type="text/css">
	.st0{fill:#FFFFFF;}
</style>
<g>
	<path class="st0" d="M186.8,370.2c-93.5,0-169.5-76.1-169.5-169.5S93.3,31.1,186.8,31.1s169.5,76.1,169.5,169.5
		S280.2,370.2,186.8,370.2z M186.8,53.2c-81.3,0-147.5,66.2-147.5,147.5s66.2,147.5,147.5,147.5s147.5-66.2,147.5-147.5
		S268.1,53.2,186.8,53.2z"/>
</g>
<g>
	<path class="st0" d="M107.1,294c-1,0-2.1-0.1-3.1-0.3c-8-1.7-13.2-9.6-11.4-17.7l29.8-138.5c1.7-8,9.7-13.1,17.7-11.4
		c8,1.7,13.2,9.7,11.4,17.7l-29.8,138.5C120.2,289.2,114,294,107.1,294z"/>
</g>
<g>
	<path class="st0" d="M162.2,306.1c-1,0-2.1-0.1-3.1-0.3c-8-1.7-13.2-9.6-11.4-17.7l36.2-168.3c1.7-8,9.6-13.2,17.7-11.4
		c8,1.7,13.2,9.7,11.4,17.7l-36.2,168.3C175.3,301.3,169.1,306.1,162.2,306.1z"/>
</g>
<g>
	<path class="st0" d="M215.4,318.2c-1,0-2.1-0.1-3.2-0.3c-8-1.7-13.1-9.7-11.4-17.7L242,110.3c1.7-8,9.7-13.1,17.7-11.4
		c8,1.7,13.1,9.7,11.4,17.7L230,306.4C228.5,313.4,222.3,318.2,215.4,318.2z"/>
</g>
<path class="st0" d="M401.7,343.4v-79.8h9.2c2.1,0,3.5,1,4,3.1l1.1,7.6c2.9-3.5,6.2-6.4,9.7-8.6c3.6-2.3,7.8-3.4,12.6-3.4
	c5.3,0,9.6,1.5,12.9,4.4c3.3,2.9,5.7,6.8,7.2,11.8c1.2-2.8,2.6-5.3,4.5-7.3c1.8-2,3.9-3.7,6.1-5s4.6-2.3,7.1-2.9
	c2.6-0.6,5.2-0.9,7.8-0.9c4.2,0,8,0.7,11.3,2c3.4,1.3,6.2,3.2,8.5,5.8c2.3,2.6,4.1,5.7,5.3,9.5c1.2,3.8,1.8,8.1,1.8,12.9v50.8h-15.4
	v-50.8c0-6-1.3-10.5-3.9-13.5c-2.6-3-6.3-4.6-11.3-4.6c-2.2,0-4.3,0.4-6.3,1.2c-2,0.7-3.7,1.9-5.3,3.4c-1.5,1.5-2.6,3.4-3.5,5.7
	c-0.8,2.3-1.3,4.9-1.3,7.9v50.8h-15.4v-50.8c0-6.2-1.2-10.7-3.7-13.7c-2.5-2.9-6.1-4.4-10.8-4.4c-3.3,0-6.4,0.9-9.2,2.6
	c-2.8,1.7-5.4,4.1-7.8,7.1v59.2H401.7z M584.3,294.6c0-3-0.4-5.8-1.3-8.4c-0.8-2.6-2.1-4.8-3.8-6.7c-1.7-1.9-3.7-3.4-6.1-4.4
	c-2.4-1-5.2-1.6-8.3-1.6c-6.4,0-11.5,1.9-15.2,5.6c-3.7,3.7-6,8.9-7,15.5H584.3z M597,332c-1.9,2.2-4.1,4.1-6.5,5.7
	c-2.5,1.6-5.1,2.9-7.9,3.8c-2.8,1-5.7,1.7-8.6,2.2c-2.9,0.5-5.8,0.7-8.7,0.7c-5.5,0-10.6-0.9-15.3-2.8c-4.7-1.9-8.7-4.6-12.2-8.2
	c-3.4-3.6-6.1-8.1-8-13.4c-1.9-5.3-2.8-11.5-2.8-18.4c0-5.6,0.9-10.7,2.6-15.5c1.7-4.8,4.2-9,7.4-12.6c3.2-3.6,7.2-6.4,11.9-8.4
	c4.7-2,9.9-3.1,15.7-3.1c4.9,0,9.3,0.8,13.4,2.4c4.1,1.6,7.7,3.9,10.7,6.9c3,3,5.3,6.8,7,11.2c1.7,4.5,2.6,9.5,2.6,15.2
	c0,2.4-0.3,4-0.8,4.8c-0.5,0.8-1.5,1.2-2.9,1.2h-52.3c0.2,4.8,0.8,8.9,2,12.5c1.2,3.5,2.9,6.4,4.9,8.8c2.1,2.4,4.7,4.1,7.6,5.3
	c2.9,1.2,6.2,1.7,9.8,1.7c3.4,0,6.3-0.4,8.8-1.2c2.5-0.8,4.7-1.6,6.4-2.5c1.8-0.9,3.4-1.8,4.6-2.6c1.3-0.8,2.4-1.2,3.3-1.2
	c1.3,0,2.2,0.5,2.9,1.4L597,332z M629.1,278.9c2.6-5.2,5.7-9.3,9.3-12.3c3.6-3,8-4.5,13-4.5c1.7,0,3.4,0.2,4.9,0.6
	c1.6,0.4,2.9,0.9,4.1,1.7l-1,11.5c-0.4,1.4-1.2,2.1-2.6,2.1c-0.7,0-1.8-0.1-3.3-0.4c-1.5-0.3-3-0.5-4.7-0.5c-2.5,0-4.6,0.4-6.5,1.1
	c-1.9,0.7-3.6,1.7-5.1,3.1c-1.5,1.4-2.8,3.1-3.9,5.1c-1.2,2-2.2,4.3-3.2,6.8v50h-15.3v-79.8h8.8c1.7,0,2.8,0.3,3.4,0.9
	c0.6,0.6,1.1,1.6,1.3,3.1L629.1,278.9z M725.2,278.5c-0.5,0.6-0.9,1-1.4,1.4c-0.4,0.3-1,0.5-1.9,0.5c-0.8,0-1.7-0.3-2.7-0.9
	c-0.9-0.7-2-1.4-3.5-2.1c-1.4-0.8-3-1.5-5-2.1c-1.9-0.7-4.3-1-7.2-1c-3.8,0-7.1,0.7-10,2c-2.9,1.4-5.3,3.3-7.2,5.8
	c-1.9,2.5-3.3,5.6-4.3,9.2c-1,3.6-1.5,7.7-1.5,12.2c0,4.7,0.5,8.8,1.6,12.5c1,3.6,2.5,6.7,4.5,9.2c1.9,2.5,4.3,4.3,7.1,5.7
	c2.8,1.3,5.9,1.9,9.3,1.9c3.3,0,6-0.4,8.2-1.2c2.1-0.8,3.9-1.7,5.3-2.7c1.4-0.9,2.6-1.8,3.5-2.6c0.9-0.8,1.9-1.3,2.9-1.3
	c1.3,0,2.2,0.5,2.9,1.4l4.4,5.7c-1.8,2.3-3.9,4.2-6.2,5.7c-2.3,1.6-4.7,2.9-7.2,3.8c-2.6,1-5.3,1.7-8.1,2.2
	c-2.8,0.5-5.6,0.7-8.5,0.7c-5,0-9.6-0.9-14-2.8c-4.3-1.8-8-4.5-11.2-8c-3.1-3.5-5.6-7.8-7.5-12.9c-1.8-5.1-2.7-10.9-2.7-17.4
	c0-5.9,0.8-11.4,2.4-16.4c1.7-5,4.1-9.3,7.3-13c3.2-3.7,7.2-6.5,11.9-8.6c4.7-2.1,10.1-3.1,16.2-3.1c5.7,0,10.7,0.9,15.1,2.7
	c4.3,1.8,8.2,4.4,11.6,7.8L725.2,278.5z M759.8,273.7c3.4-3.4,7-6.2,11.1-8.2c4.1-2.1,8.8-3.1,14.1-3.1c4.4,0,8.2,0.7,11.5,2.2
	c3.4,1.5,6.2,3.5,8.4,6.2c2.3,2.6,4,5.8,5.1,9.5c1.2,3.7,1.7,7.8,1.7,12.3v50.8h-15.4v-50.8c0-5.7-1.3-10.1-3.9-13.3
	c-2.6-3.2-6.6-4.8-12-4.8c-3.9,0-7.6,0.9-11.1,2.8c-3.4,1.8-6.6,4.3-9.5,7.5v58.5h-15.3v-116h15.3V273.7z M875.3,308
	c-6.2,0.2-11.5,0.7-15.9,1.5c-4.3,0.7-7.9,1.7-10.6,3c-2.7,1.3-4.7,2.8-5.9,4.5c-1.2,1.7-1.8,3.6-1.8,5.7c0,2,0.3,3.7,0.9,5.2
	c0.7,1.4,1.6,2.6,2.7,3.5c1.2,0.9,2.5,1.5,4,2c1.5,0.4,3.2,0.6,4.9,0.6c2.4,0,4.5-0.2,6.4-0.7c2-0.5,3.8-1.1,5.6-2
	c1.7-0.9,3.4-2,4.9-3.2c1.6-1.3,3.1-2.7,4.6-4.3V308z M830.3,274.7c4.5-4.2,9.3-7.4,14.5-9.5c5.2-2.1,11-3.1,17.2-3.1
	c4.6,0,8.6,0.8,12.1,2.3c3.5,1.5,6.5,3.5,8.9,6.2c2.4,2.7,4.2,5.9,5.4,9.6c1.3,3.7,1.9,7.8,1.9,12.3v50.9h-6.8
	c-1.5,0-2.7-0.2-3.5-0.7c-0.8-0.5-1.4-1.5-1.9-2.8l-1.6-7c-2,1.9-4.1,3.6-6,5c-2,1.4-4.1,2.6-6.3,3.7c-2.1,1-4.5,1.8-6.9,2.3
	c-2.5,0.5-5.2,0.8-8.2,0.8c-3.1,0-6.1-0.4-8.9-1.3c-2.7-0.9-5.1-2.2-7.1-4c-2-1.8-3.7-4-4.9-6.7c-1.2-2.7-1.7-5.8-1.7-9.3
	c0-3.1,0.8-6.2,2.5-9c1.7-2.9,4.5-5.6,8.3-7.9c3.9-2.3,8.9-4.2,15.1-5.7c6.2-1.5,13.9-2.3,22.9-2.5v-5.8c0-6-1.3-10.5-3.8-13.5
	c-2.6-3-6.3-4.5-11.3-4.5c-3.4,0-6.2,0.4-8.5,1.3c-2.3,0.8-4.2,1.8-5.9,2.8c-1.6,1-3.1,1.9-4.3,2.7c-1.2,0.8-2.5,1.3-3.8,1.3
	c-1,0-2-0.3-2.7-0.9c-0.7-0.6-1.3-1.3-1.8-2L830.3,274.7z M925.2,274.6c1.7-1.8,3.5-3.5,5.4-5c1.9-1.5,3.9-2.8,6-3.8
	c2.1-1.1,4.4-1.9,6.8-2.5c2.5-0.6,5.1-0.9,7.9-0.9c4.4,0,8.2,0.7,11.5,2.2c3.4,1.5,6.2,3.5,8.4,6.2c2.3,2.6,4,5.8,5.1,9.5
	c1.2,3.7,1.7,7.8,1.7,12.3v50.8h-15.4v-50.8c0-5.7-1.3-10.1-3.9-13.3c-2.6-3.2-6.6-4.8-12-4.8c-3.9,0-7.6,0.9-11.1,2.8
	c-3.4,1.8-6.6,4.3-9.5,7.5v58.5h-15.3v-79.8h9.2c2.1,0,3.5,1,4,3.1L925.2,274.6z M1050.2,282.9c-2.5-3.3-5.2-5.6-8.2-6.9
	c-2.9-1.3-6.1-2-9.7-2c-7,0-12.5,2.5-16.3,7.6c-3.8,5-5.7,12.4-5.7,22.1c0,5.1,0.4,9.4,1.3,13c0.9,3.6,2.1,6.5,3.8,8.8
	c1.7,2.3,3.7,3.9,6.1,5c2.4,1,5.1,1.6,8.2,1.6c4.5,0,8.3-1,11.5-3c3.2-2,6.3-4.8,9.1-8.4V282.9z M1065.5,227.4v116h-9.3
	c-2.1,0-3.5-1-4-3.1l-1.3-9.2c-3.4,4-7.3,7.3-11.6,9.7c-4.3,2.4-9.3,3.6-14.9,3.6c-4.6,0-8.7-0.9-12.4-2.7c-3.7-1.8-6.8-4.4-9.4-7.8
	c-2.6-3.5-4.6-7.7-6-12.8c-1.4-5.1-2.1-10.9-2.1-17.5c0-5.9,0.8-11.4,2.4-16.5c1.6-5.1,3.8-9.5,6.8-13.2c3-3.7,6.6-6.6,10.8-8.7
	c4.2-2.1,9-3.2,14.4-3.2c4.8,0,8.9,0.8,12.3,2.4c3.4,1.6,6.4,3.8,9.1,6.7v-43.7H1065.5z M1102.9,263.6v79.8h-15.3v-79.8H1102.9z
	 M1105.9,238.9c0,1.4-0.3,2.8-0.9,4.1c-0.6,1.3-1.4,2.4-2.4,3.4c-0.9,0.9-2.1,1.7-3.4,2.3c-1.3,0.5-2.7,0.8-4.1,0.8
	c-1.4,0-2.7-0.3-4-0.8c-1.3-0.6-2.4-1.3-3.4-2.3c-0.9-1-1.7-2.1-2.3-3.4c-0.5-1.3-0.8-2.7-0.8-4.1c0-1.5,0.3-2.8,0.8-4.1
	c0.6-1.3,1.3-2.4,2.3-3.4c1-1,2.1-1.8,3.4-2.3c1.3-0.6,2.6-0.9,4-0.9c1.4,0,2.8,0.3,4.1,0.9c1.3,0.5,2.4,1.3,3.4,2.3
	c1,0.9,1.8,2.1,2.4,3.4C1105.6,236.1,1105.9,237.4,1105.9,238.9z M1172.2,277.3c-0.4,0.7-0.9,1.2-1.3,1.5c-0.5,0.3-1.1,0.4-1.8,0.4
	c-0.8,0-1.8-0.3-2.8-0.9c-1-0.6-2.2-1.2-3.7-1.9c-1.4-0.7-3.1-1.3-5-1.9c-1.9-0.6-4.2-0.9-6.9-0.9c-2.2,0-4.2,0.3-6,0.9
	c-1.8,0.5-3.3,1.3-4.6,2.3c-1.3,0.9-2.2,2.1-2.9,3.5c-0.7,1.3-1,2.7-1,4.2c0,2,0.6,3.6,1.7,4.9c1.2,1.3,2.7,2.4,4.6,3.4
	c1.9,0.9,4.1,1.8,6.5,2.6c2.5,0.7,4.9,1.5,7.5,2.4c2.6,0.8,5.1,1.8,7.5,2.9c2.5,1,4.6,2.4,6.5,4c1.9,1.6,3.5,3.5,4.6,5.7
	c1.2,2.3,1.8,5,1.8,8.2c0,3.7-0.7,7.2-2,10.4c-1.3,3.1-3.3,5.9-5.9,8.2c-2.6,2.3-5.8,4.1-9.6,5.4c-3.8,1.3-8.2,2-13.1,2
	c-5.5,0-10.6-0.9-15.2-2.8c-4.7-1.8-8.6-4.2-11.7-7l3.6-5.9c0.4-0.7,0.9-1.3,1.6-1.6c0.6-0.4,1.5-0.6,2.5-0.6c1,0,2,0.4,3.1,1.1
	c1,0.7,2.3,1.5,3.8,2.4c1.5,0.8,3.2,1.6,5.3,2.4c2.1,0.7,4.7,1,7.9,1c2.6,0,4.9-0.3,6.8-0.9c1.9-0.7,3.5-1.6,4.8-2.7
	c1.3-1.2,2.3-2.5,2.9-3.9c0.6-1.5,0.9-3,0.9-4.6c0-2.1-0.6-3.8-1.8-5.2c-1.2-1.4-2.7-2.6-4.6-3.6c-1.9-1-4.1-1.9-6.5-2.6
	c-2.5-0.7-5-1.5-7.5-2.4c-2.6-0.8-5.1-1.8-7.5-2.9c-2.5-1.1-4.7-2.5-6.6-4.2c-1.9-1.7-3.4-3.7-4.6-6.1c-1.2-2.4-1.7-5.3-1.7-8.8
	c0-3.1,0.6-6,1.9-8.9c1.3-2.8,3.2-5.3,5.6-7.5c2.5-2.1,5.5-3.8,9-5.1c3.6-1.3,7.7-2,12.3-2c5.3,0,10.1,0.8,14.3,2.5
	c4.3,1.7,8,4,11,6.9L1172.2,277.3z M1246.3,294.6c0-3-0.4-5.8-1.3-8.4c-0.8-2.6-2.1-4.8-3.8-6.7c-1.7-1.9-3.7-3.4-6.1-4.4
	c-2.4-1-5.2-1.6-8.3-1.6c-6.4,0-11.5,1.9-15.2,5.6c-3.7,3.7-6,8.9-7,15.5H1246.3z M1258.9,332c-1.9,2.2-4.1,4.1-6.5,5.7
	c-2.5,1.6-5.1,2.9-7.9,3.8c-2.8,1-5.7,1.7-8.6,2.2c-2.9,0.5-5.8,0.7-8.7,0.7c-5.5,0-10.6-0.9-15.3-2.8c-4.7-1.9-8.7-4.6-12.2-8.2
	c-3.4-3.6-6.1-8.1-8-13.4c-1.9-5.3-2.8-11.5-2.8-18.4c0-5.6,0.9-10.7,2.6-15.5c1.7-4.8,4.2-9,7.4-12.6c3.2-3.6,7.2-6.4,11.9-8.4
	c4.7-2,9.9-3.1,15.7-3.1c4.9,0,9.4,0.8,13.4,2.4c4.1,1.6,7.7,3.9,10.7,6.9c3,3,5.3,6.8,7,11.2c1.7,4.5,2.6,9.5,2.6,15.2
	c0,2.4-0.3,4-0.8,4.8c-0.5,0.8-1.5,1.2-2.9,1.2h-52.3c0.2,4.8,0.8,8.9,2,12.5c1.2,3.5,2.9,6.4,4.9,8.8c2.1,2.4,4.7,4.1,7.6,5.3
	c2.9,1.2,6.2,1.7,9.8,1.7c3.4,0,6.3-0.4,8.8-1.2c2.5-0.8,4.7-1.6,6.4-2.5c1.8-0.9,3.4-1.8,4.6-2.6c1.3-0.8,2.4-1.2,3.3-1.2
	c1.3,0,2.2,0.5,2.9,1.4L1258.9,332z M1363.4,277.3c-0.4,0.7-0.9,1.2-1.3,1.5c-0.5,0.3-1.1,0.4-1.8,0.4c-0.8,0-1.8-0.3-2.8-0.9
	c-1-0.6-2.2-1.2-3.7-1.9c-1.4-0.7-3.1-1.3-5-1.9c-1.9-0.6-4.2-0.9-6.9-0.9c-2.2,0-4.2,0.3-6,0.9c-1.8,0.5-3.3,1.3-4.6,2.3
	c-1.3,0.9-2.2,2.1-2.9,3.5c-0.7,1.3-1,2.7-1,4.2c0,2,0.6,3.6,1.7,4.9c1.2,1.3,2.8,2.4,4.6,3.4c1.9,0.9,4.1,1.8,6.5,2.6
	c2.5,0.7,5,1.5,7.5,2.4c2.6,0.8,5.1,1.8,7.5,2.9c2.5,1,4.6,2.4,6.5,4c1.9,1.6,3.5,3.5,4.6,5.7c1.2,2.3,1.8,5,1.8,8.2
	c0,3.7-0.7,7.2-2,10.4c-1.3,3.1-3.3,5.9-5.9,8.2c-2.6,2.3-5.8,4.1-9.6,5.4c-3.8,1.3-8.2,2-13.1,2c-5.5,0-10.6-0.9-15.2-2.8
	c-4.7-1.8-8.6-4.2-11.7-7l3.6-5.9c0.4-0.7,0.9-1.3,1.6-1.6c0.6-0.4,1.5-0.6,2.5-0.6c1,0,2,0.4,3.1,1.1c1.1,0.7,2.3,1.5,3.8,2.4
	c1.5,0.8,3.2,1.6,5.3,2.4c2.1,0.7,4.7,1,7.9,1c2.6,0,4.9-0.3,6.8-0.9c1.9-0.7,3.5-1.6,4.8-2.7c1.3-1.2,2.3-2.5,2.9-3.9
	c0.6-1.5,0.9-3,0.9-4.6c0-2.1-0.6-3.8-1.8-5.2c-1.1-1.4-2.7-2.6-4.6-3.6c-1.9-1-4.1-1.9-6.5-2.6c-2.5-0.7-5-1.5-7.5-2.4
	c-2.6-0.8-5.1-1.8-7.5-2.9c-2.5-1.1-4.7-2.5-6.6-4.2c-1.9-1.7-3.4-3.7-4.6-6.1c-1.2-2.4-1.7-5.3-1.7-8.8c0-3.1,0.6-6,1.9-8.9
	c1.3-2.8,3.2-5.3,5.6-7.5c2.5-2.1,5.5-3.8,9-5.1c3.6-1.3,7.7-2,12.3-2c5.3,0,10.1,0.8,14.3,2.5c4.3,1.7,8,4,11,6.9L1363.4,277.3z
	 M1399.9,273.7c3.4-3.4,7-6.2,11.1-8.2c4.1-2.1,8.8-3.1,14.1-3.1c4.4,0,8.2,0.7,11.5,2.2c3.4,1.5,6.2,3.5,8.4,6.2
	c2.3,2.6,3.9,5.8,5.1,9.5c1.2,3.7,1.7,7.8,1.7,12.3v50.8h-15.4v-50.8c0-5.7-1.3-10.1-3.9-13.3c-2.6-3.2-6.6-4.8-12-4.8
	c-3.9,0-7.6,0.9-11.1,2.8c-3.4,1.8-6.6,4.3-9.5,7.5v58.5h-15.3v-116h15.3V273.7z M1506.5,262.3c5.9,0,11.2,1,15.9,2.9
	c4.8,1.9,8.8,4.6,12.1,8.2c3.3,3.6,5.9,7.9,7.7,13c1.8,5,2.7,10.7,2.7,17c0,6.3-0.9,12-2.7,17c-1.8,5.1-4.4,9.4-7.7,13
	c-3.3,3.6-7.3,6.3-12.1,8.2c-4.7,1.9-10,2.8-15.9,2.8c-5.9,0-11.3-0.9-16-2.8c-4.7-1.9-8.8-4.7-12.1-8.2c-3.4-3.6-5.9-7.9-7.8-13
	c-1.8-5.1-2.7-10.8-2.7-17c0-6.3,0.9-11.9,2.7-17c1.8-5.1,4.4-9.4,7.8-13c3.3-3.6,7.4-6.4,12.1-8.2
	C1495.3,263.3,1500.6,262.3,1506.5,262.3z M1506.5,332.5c7.5,0,13.2-2.5,16.9-7.6c3.7-5.1,5.6-12.2,5.6-21.4
	c0-9.2-1.9-16.4-5.6-21.4c-3.7-5.1-9.3-7.7-16.9-7.7c-7.6,0-13.4,2.6-17.1,7.7c-3.7,5.1-5.6,12.2-5.6,21.4c0,9.2,1.9,16.4,5.6,21.4
	C1493.2,330,1498.9,332.5,1506.5,332.5z M1577.3,323.7c2.5,3.3,5.2,5.6,8.1,6.9c2.9,1.3,6.2,2,9.8,2c7,0,12.4-2.5,16.3-7.5
	c3.9-5.1,5.8-12.5,5.8-22.2c0-5.1-0.4-9.4-1.3-13c-0.8-3.6-2.1-6.5-3.8-8.8c-1.6-2.3-3.6-4-6-5c-2.4-1.1-5.1-1.6-8.2-1.6
	c-4.5,0-8.3,1-11.6,3c-3.2,2-6.3,4.8-9,8.5V323.7z M1576.5,275.5c1.7-2,3.5-3.8,5.3-5.4c1.9-1.7,4-3.1,6.2-4.2
	c2.2-1.2,4.5-2.1,7-2.7c2.5-0.7,5.2-1,8-1c4.6,0,8.7,0.9,12.3,2.7c3.7,1.8,6.9,4.4,9.5,7.9c2.6,3.5,4.6,7.7,6,12.8
	c1.5,5.1,2.2,10.9,2.2,17.5c0,5.9-0.8,11.4-2.4,16.5c-1.6,5-3.8,9.4-6.8,13.1c-2.9,3.7-6.5,6.7-10.8,8.8c-4.2,2.1-9,3.1-14.4,3.1
	c-4.8,0-8.9-0.8-12.3-2.4c-3.4-1.6-6.4-3.8-9.1-6.6v34.6H1562V263.6h9.2c2.1,0,3.5,1,4,3.1L1576.5,275.5z"/>
<image style="overflow:visible;" width="1388" height="384" xlink:href="94529E2C.png"  transform="matrix(0.6411 0 0 0.6411 370.3105 9.3212)">
</image>
</svg>
