<?xml version="1.0" encoding="utf-8"?>
<!-- Generator: Adobe Illustrator 25.2.0, SVG Export Plug-In . SVG Version: 6.00 Build 0)  -->
<svg version="1.1" id="Layer_1" xmlns="http://www.w3.org/2000/svg" xmlns:xlink="http://www.w3.org/1999/xlink" x="0px" y="0px"
	 viewBox="0 0 157.4 71.8" style="enable-background:new 0 0 157.4 71.8;" xml:space="preserve">
<style type="text/css">
	.st0{fill:#5BBB61;}
	.st1{fill:#5CBB61;}
</style>
<g>
	<path class="st0" d="M79.1,41.7c-11.2,0-20.3-9.1-20.3-20.3c0-11.2,9.1-20.3,20.3-20.3s20.3,9.1,20.3,20.3
		C99.4,32.7,90.3,41.7,79.1,41.7z M79.1,3.9c-9.7,0-17.6,7.9-17.6,17.6c0,9.7,7.9,17.6,17.6,17.6s17.6-7.9,17.6-17.6
		C96.7,11.8,88.8,3.9,79.1,3.9z"/>
</g>
<g>
	<path class="st0" d="M69.6,32.6c-0.1,0-0.3,0-0.4,0c-1-0.2-1.6-1.2-1.4-2.1l3.6-16.6c0.2-1,1.2-1.6,2.1-1.4c1,0.2,1.6,1.2,1.4,2.1
		l-3.6,16.6C71.2,32.1,70.4,32.6,69.6,32.6z"/>
</g>
<g>
	<path class="st0" d="M76.2,34.1c-0.1,0-0.3,0-0.4,0c-1-0.2-1.6-1.2-1.4-2.1l4.3-20.1c0.2-1,1.1-1.6,2.1-1.4c1,0.2,1.6,1.2,1.4,2.1
		l-4.3,20.1C77.7,33.5,77,34.1,76.2,34.1z"/>
</g>
<g>
	<path class="st0" d="M82.5,35.5c-0.1,0-0.3,0-0.4,0c-1-0.2-1.6-1.2-1.4-2.1l4.9-22.7c0.2-1,1.2-1.6,2.1-1.4c1,0.2,1.6,1.2,1.4,2.1
		l-4.9,22.7C84.1,35,83.4,35.5,82.5,35.5z"/>
</g>
<path class="st1" d="M5.4,67.4v-9.5h1.1c0.3,0,0.4,0.1,0.5,0.4l0.1,0.9c0.4-0.4,0.7-0.8,1.2-1c0.4-0.3,0.9-0.4,1.5-0.4
	c0.6,0,1.1,0.2,1.5,0.5c0.4,0.3,0.7,0.8,0.9,1.4c0.1-0.3,0.3-0.6,0.5-0.9c0.2-0.2,0.5-0.4,0.7-0.6c0.3-0.2,0.6-0.3,0.9-0.3
	c0.3-0.1,0.6-0.1,0.9-0.1c0.5,0,1,0.1,1.4,0.2c0.4,0.2,0.7,0.4,1,0.7c0.3,0.3,0.5,0.7,0.6,1.1c0.1,0.5,0.2,1,0.2,1.5v6.1h-1.8v-6.1
	c0-0.7-0.2-1.3-0.5-1.6c-0.3-0.4-0.8-0.5-1.4-0.5c-0.3,0-0.5,0-0.8,0.1c-0.2,0.1-0.4,0.2-0.6,0.4c-0.2,0.2-0.3,0.4-0.4,0.7
	c-0.1,0.3-0.2,0.6-0.2,0.9v6.1H11v-6.1c0-0.7-0.1-1.3-0.4-1.6c-0.3-0.4-0.7-0.5-1.3-0.5c-0.4,0-0.8,0.1-1.1,0.3
	c-0.3,0.2-0.6,0.5-0.9,0.8v7.1H5.4z M27.2,61.6c0-0.4-0.1-0.7-0.2-1c-0.1-0.3-0.3-0.6-0.5-0.8c-0.2-0.2-0.4-0.4-0.7-0.5
	c-0.3-0.1-0.6-0.2-1-0.2c-0.8,0-1.4,0.2-1.8,0.7c-0.4,0.4-0.7,1.1-0.8,1.8H27.2z M28.8,66.1c-0.2,0.3-0.5,0.5-0.8,0.7
	c-0.3,0.2-0.6,0.3-0.9,0.5c-0.3,0.1-0.7,0.2-1,0.3c-0.4,0.1-0.7,0.1-1,0.1c-0.7,0-1.3-0.1-1.8-0.3c-0.6-0.2-1-0.6-1.5-1
	c-0.4-0.4-0.7-1-1-1.6c-0.2-0.6-0.3-1.4-0.3-2.2c0-0.7,0.1-1.3,0.3-1.8c0.2-0.6,0.5-1.1,0.9-1.5c0.4-0.4,0.9-0.8,1.4-1
	c0.6-0.2,1.2-0.4,1.9-0.4c0.6,0,1.1,0.1,1.6,0.3c0.5,0.2,0.9,0.5,1.3,0.8c0.4,0.4,0.6,0.8,0.8,1.3c0.2,0.5,0.3,1.1,0.3,1.8
	c0,0.3,0,0.5-0.1,0.6c-0.1,0.1-0.2,0.1-0.3,0.1h-6.3c0,0.6,0.1,1.1,0.2,1.5c0.1,0.4,0.3,0.8,0.6,1.1c0.3,0.3,0.6,0.5,0.9,0.6
	c0.4,0.1,0.7,0.2,1.2,0.2c0.4,0,0.8,0,1.1-0.1c0.3-0.1,0.6-0.2,0.8-0.3c0.2-0.1,0.4-0.2,0.5-0.3c0.2-0.1,0.3-0.1,0.4-0.1
	c0.2,0,0.3,0.1,0.3,0.2L28.8,66.1z M32.6,59.7c0.3-0.6,0.7-1.1,1.1-1.5c0.4-0.4,1-0.5,1.6-0.5c0.2,0,0.4,0,0.6,0.1
	c0.2,0,0.4,0.1,0.5,0.2l-0.1,1.4c0,0.2-0.1,0.3-0.3,0.3c-0.1,0-0.2,0-0.4,0c-0.2,0-0.4-0.1-0.6-0.1c-0.3,0-0.6,0-0.8,0.1
	c-0.2,0.1-0.4,0.2-0.6,0.4c-0.2,0.2-0.3,0.4-0.5,0.6c-0.1,0.2-0.3,0.5-0.4,0.8v6h-1.8v-9.5h1.1c0.2,0,0.3,0,0.4,0.1
	c0.1,0.1,0.1,0.2,0.2,0.4L32.6,59.7z M44.1,59.7c-0.1,0.1-0.1,0.1-0.2,0.2c-0.1,0-0.1,0.1-0.2,0.1c-0.1,0-0.2,0-0.3-0.1
	c-0.1-0.1-0.2-0.2-0.4-0.3c-0.2-0.1-0.4-0.2-0.6-0.3c-0.2-0.1-0.5-0.1-0.9-0.1c-0.5,0-0.8,0.1-1.2,0.2c-0.3,0.2-0.6,0.4-0.9,0.7
	c-0.2,0.3-0.4,0.7-0.5,1.1c-0.1,0.4-0.2,0.9-0.2,1.5c0,0.6,0.1,1.1,0.2,1.5c0.1,0.4,0.3,0.8,0.5,1.1c0.2,0.3,0.5,0.5,0.8,0.7
	c0.3,0.2,0.7,0.2,1.1,0.2c0.4,0,0.7,0,1-0.1c0.3-0.1,0.5-0.2,0.6-0.3c0.2-0.1,0.3-0.2,0.4-0.3c0.1-0.1,0.2-0.2,0.3-0.2
	c0.2,0,0.3,0.1,0.3,0.2l0.5,0.7c-0.2,0.3-0.5,0.5-0.7,0.7c-0.3,0.2-0.6,0.3-0.9,0.5c-0.3,0.1-0.6,0.2-1,0.3c-0.3,0.1-0.7,0.1-1,0.1
	c-0.6,0-1.2-0.1-1.7-0.3c-0.5-0.2-1-0.5-1.3-1c-0.4-0.4-0.7-0.9-0.9-1.5c-0.2-0.6-0.3-1.3-0.3-2.1c0-0.7,0.1-1.4,0.3-2
	c0.2-0.6,0.5-1.1,0.9-1.5c0.4-0.4,0.9-0.8,1.4-1c0.6-0.3,1.2-0.4,1.9-0.4c0.7,0,1.3,0.1,1.8,0.3c0.5,0.2,1,0.5,1.4,0.9L44.1,59.7z
	 M48.2,59.1c0.4-0.4,0.8-0.7,1.3-1c0.5-0.3,1-0.4,1.7-0.4c0.5,0,1,0.1,1.4,0.3c0.4,0.2,0.7,0.4,1,0.7c0.3,0.3,0.5,0.7,0.6,1.1
	c0.1,0.4,0.2,0.9,0.2,1.5v6.1h-1.8v-6.1c0-0.7-0.2-1.2-0.5-1.6c-0.3-0.4-0.8-0.6-1.4-0.6c-0.5,0-0.9,0.1-1.3,0.3
	c-0.4,0.2-0.8,0.5-1.1,0.9v7h-1.8V53.6h1.8V59.1z M62,63.2c-0.7,0-1.4,0.1-1.9,0.2c-0.5,0.1-0.9,0.2-1.3,0.4
	c-0.3,0.2-0.6,0.3-0.7,0.5c-0.1,0.2-0.2,0.4-0.2,0.7c0,0.2,0,0.4,0.1,0.6c0.1,0.2,0.2,0.3,0.3,0.4c0.1,0.1,0.3,0.2,0.5,0.2
	c0.2,0,0.4,0.1,0.6,0.1c0.3,0,0.5,0,0.8-0.1c0.2-0.1,0.5-0.1,0.7-0.2c0.2-0.1,0.4-0.2,0.6-0.4c0.2-0.2,0.4-0.3,0.6-0.5V63.2z
	 M56.6,59.2c0.5-0.5,1.1-0.9,1.7-1.1c0.6-0.3,1.3-0.4,2.1-0.4c0.5,0,1,0.1,1.4,0.3c0.4,0.2,0.8,0.4,1.1,0.7c0.3,0.3,0.5,0.7,0.6,1.1
	c0.2,0.4,0.2,0.9,0.2,1.5v6.1H63c-0.2,0-0.3,0-0.4-0.1c-0.1-0.1-0.2-0.2-0.2-0.3l-0.2-0.8c-0.2,0.2-0.5,0.4-0.7,0.6
	c-0.2,0.2-0.5,0.3-0.8,0.4c-0.3,0.1-0.5,0.2-0.8,0.3s-0.6,0.1-1,0.1c-0.4,0-0.7-0.1-1.1-0.2c-0.3-0.1-0.6-0.3-0.9-0.5
	c-0.2-0.2-0.4-0.5-0.6-0.8c-0.1-0.3-0.2-0.7-0.2-1.1c0-0.4,0.1-0.7,0.3-1.1c0.2-0.4,0.5-0.7,1-0.9c0.5-0.3,1.1-0.5,1.8-0.7
	c0.7-0.2,1.7-0.3,2.7-0.3v-0.7c0-0.7-0.2-1.3-0.5-1.6c-0.3-0.4-0.8-0.5-1.4-0.5c-0.4,0-0.7,0.1-1,0.2c-0.3,0.1-0.5,0.2-0.7,0.3
	c-0.2,0.1-0.4,0.2-0.5,0.3c-0.1,0.1-0.3,0.2-0.5,0.2c-0.1,0-0.2,0-0.3-0.1C57.1,60,57,59.9,57,59.8L56.6,59.2z M68,59.2
	c0.2-0.2,0.4-0.4,0.6-0.6c0.2-0.2,0.5-0.3,0.7-0.5c0.3-0.1,0.5-0.2,0.8-0.3c0.3-0.1,0.6-0.1,0.9-0.1c0.5,0,1,0.1,1.4,0.3
	c0.4,0.2,0.7,0.4,1,0.7c0.3,0.3,0.5,0.7,0.6,1.1s0.2,0.9,0.2,1.5v6.1h-1.8v-6.1c0-0.7-0.2-1.2-0.5-1.6c-0.3-0.4-0.8-0.6-1.4-0.6
	c-0.5,0-0.9,0.1-1.3,0.3c-0.4,0.2-0.8,0.5-1.1,0.9v7h-1.8v-9.5h1.1c0.3,0,0.4,0.1,0.5,0.4L68,59.2z M82.9,60.2
	c-0.3-0.4-0.6-0.7-1-0.8c-0.3-0.2-0.7-0.2-1.2-0.2c-0.8,0-1.5,0.3-2,0.9c-0.5,0.6-0.7,1.5-0.7,2.6c0,0.6,0,1.1,0.2,1.6
	c0.1,0.4,0.3,0.8,0.5,1.1c0.2,0.3,0.4,0.5,0.7,0.6c0.3,0.1,0.6,0.2,1,0.2c0.5,0,1-0.1,1.4-0.4s0.8-0.6,1.1-1V60.2z M84.8,53.6v13.9
	h-1.1c-0.3,0-0.4-0.1-0.5-0.4L83,66c-0.4,0.5-0.9,0.9-1.4,1.2c-0.5,0.3-1.1,0.4-1.8,0.4c-0.5,0-1-0.1-1.5-0.3
	c-0.4-0.2-0.8-0.5-1.1-0.9c-0.3-0.4-0.6-0.9-0.7-1.5c-0.2-0.6-0.3-1.3-0.3-2.1c0-0.7,0.1-1.4,0.3-2c0.2-0.6,0.5-1.1,0.8-1.6
	c0.4-0.4,0.8-0.8,1.3-1c0.5-0.3,1.1-0.4,1.7-0.4c0.6,0,1.1,0.1,1.5,0.3c0.4,0.2,0.8,0.5,1.1,0.8v-5.2H84.8z M89.2,57.9v9.5h-1.8
	v-9.5H89.2z M89.6,55c0,0.2,0,0.3-0.1,0.5c-0.1,0.2-0.2,0.3-0.3,0.4c-0.1,0.1-0.2,0.2-0.4,0.3c-0.2,0.1-0.3,0.1-0.5,0.1
	c-0.2,0-0.3,0-0.5-0.1c-0.2-0.1-0.3-0.2-0.4-0.3c-0.1-0.1-0.2-0.3-0.3-0.4C87.1,55.3,87,55.1,87,55c0-0.2,0-0.3,0.1-0.5
	c0.1-0.2,0.2-0.3,0.3-0.4c0.1-0.1,0.3-0.2,0.4-0.3c0.2-0.1,0.3-0.1,0.5-0.1c0.2,0,0.3,0,0.5,0.1c0.2,0.1,0.3,0.2,0.4,0.3
	c0.1,0.1,0.2,0.2,0.3,0.4C89.5,54.6,89.6,54.8,89.6,55z M97.5,59.6c-0.1,0.1-0.1,0.1-0.2,0.2c-0.1,0-0.1,0-0.2,0
	c-0.1,0-0.2,0-0.3-0.1c-0.1-0.1-0.3-0.1-0.4-0.2c-0.2-0.1-0.4-0.2-0.6-0.2c-0.2-0.1-0.5-0.1-0.8-0.1c-0.3,0-0.5,0-0.7,0.1
	c-0.2,0.1-0.4,0.2-0.5,0.3c-0.2,0.1-0.3,0.3-0.3,0.4c-0.1,0.2-0.1,0.3-0.1,0.5c0,0.2,0.1,0.4,0.2,0.6c0.1,0.2,0.3,0.3,0.6,0.4
	c0.2,0.1,0.5,0.2,0.8,0.3c0.3,0.1,0.6,0.2,0.9,0.3c0.3,0.1,0.6,0.2,0.9,0.3c0.3,0.1,0.6,0.3,0.8,0.5c0.2,0.2,0.4,0.4,0.6,0.7
	c0.1,0.3,0.2,0.6,0.2,1c0,0.4-0.1,0.9-0.2,1.2c-0.2,0.4-0.4,0.7-0.7,1c-0.3,0.3-0.7,0.5-1.1,0.6c-0.5,0.2-1,0.2-1.6,0.2
	c-0.7,0-1.3-0.1-1.8-0.3c-0.6-0.2-1-0.5-1.4-0.8l0.4-0.7c0-0.1,0.1-0.2,0.2-0.2c0.1-0.1,0.2-0.1,0.3-0.1c0.1,0,0.2,0,0.4,0.1
	c0.1,0.1,0.3,0.2,0.5,0.3c0.2,0.1,0.4,0.2,0.6,0.3c0.3,0.1,0.6,0.1,0.9,0.1c0.3,0,0.6,0,0.8-0.1c0.2-0.1,0.4-0.2,0.6-0.3
	c0.2-0.1,0.3-0.3,0.3-0.5c0.1-0.2,0.1-0.4,0.1-0.6c0-0.3-0.1-0.5-0.2-0.6c-0.1-0.2-0.3-0.3-0.6-0.4c-0.2-0.1-0.5-0.2-0.8-0.3
	c-0.3-0.1-0.6-0.2-0.9-0.3c-0.3-0.1-0.6-0.2-0.9-0.3c-0.3-0.1-0.6-0.3-0.8-0.5c-0.2-0.2-0.4-0.4-0.6-0.7c-0.1-0.3-0.2-0.6-0.2-1.1
	c0-0.4,0.1-0.7,0.2-1.1c0.2-0.3,0.4-0.6,0.7-0.9c0.3-0.3,0.7-0.5,1.1-0.6c0.4-0.2,0.9-0.2,1.5-0.2c0.6,0,1.2,0.1,1.7,0.3
	c0.5,0.2,1,0.5,1.3,0.8L97.5,59.6z M106.4,61.6c0-0.4-0.1-0.7-0.2-1c-0.1-0.3-0.3-0.6-0.5-0.8s-0.4-0.4-0.7-0.5
	c-0.3-0.1-0.6-0.2-1-0.2c-0.8,0-1.4,0.2-1.8,0.7c-0.4,0.4-0.7,1.1-0.8,1.8H106.4z M107.9,66.1c-0.2,0.3-0.5,0.5-0.8,0.7
	c-0.3,0.2-0.6,0.3-0.9,0.5c-0.3,0.1-0.7,0.2-1,0.3c-0.4,0.1-0.7,0.1-1,0.1c-0.7,0-1.3-0.1-1.8-0.3c-0.6-0.2-1-0.6-1.5-1
	c-0.4-0.4-0.7-1-1-1.6c-0.2-0.6-0.3-1.4-0.3-2.2c0-0.7,0.1-1.3,0.3-1.8c0.2-0.6,0.5-1.1,0.9-1.5c0.4-0.4,0.9-0.8,1.4-1
	c0.6-0.2,1.2-0.4,1.9-0.4c0.6,0,1.1,0.1,1.6,0.3c0.5,0.2,0.9,0.5,1.3,0.8c0.4,0.4,0.6,0.8,0.8,1.3c0.2,0.5,0.3,1.1,0.3,1.8
	c0,0.3,0,0.5-0.1,0.6c-0.1,0.1-0.2,0.1-0.3,0.1h-6.3c0,0.6,0.1,1.1,0.2,1.5c0.1,0.4,0.3,0.8,0.6,1.1c0.3,0.3,0.6,0.5,0.9,0.6
	c0.4,0.1,0.7,0.2,1.2,0.2c0.4,0,0.8,0,1.1-0.1c0.3-0.1,0.6-0.2,0.8-0.3c0.2-0.1,0.4-0.2,0.5-0.3c0.2-0.1,0.3-0.1,0.4-0.1
	c0.2,0,0.3,0.1,0.3,0.2L107.9,66.1z M120.3,59.6c-0.1,0.1-0.1,0.1-0.2,0.2c-0.1,0-0.1,0-0.2,0c-0.1,0-0.2,0-0.3-0.1
	c-0.1-0.1-0.3-0.1-0.4-0.2c-0.2-0.1-0.4-0.2-0.6-0.2c-0.2-0.1-0.5-0.1-0.8-0.1c-0.3,0-0.5,0-0.7,0.1c-0.2,0.1-0.4,0.2-0.5,0.3
	c-0.1,0.1-0.3,0.3-0.3,0.4c-0.1,0.2-0.1,0.3-0.1,0.5c0,0.2,0.1,0.4,0.2,0.6c0.1,0.2,0.3,0.3,0.6,0.4c0.2,0.1,0.5,0.2,0.8,0.3
	c0.3,0.1,0.6,0.2,0.9,0.3c0.3,0.1,0.6,0.2,0.9,0.3c0.3,0.1,0.6,0.3,0.8,0.5c0.2,0.2,0.4,0.4,0.6,0.7c0.1,0.3,0.2,0.6,0.2,1
	c0,0.4-0.1,0.9-0.2,1.2c-0.2,0.4-0.4,0.7-0.7,1c-0.3,0.3-0.7,0.5-1.1,0.6c-0.5,0.2-1,0.2-1.6,0.2c-0.7,0-1.3-0.1-1.8-0.3
	c-0.6-0.2-1-0.5-1.4-0.8l0.4-0.7c0.1-0.1,0.1-0.2,0.2-0.2c0.1-0.1,0.2-0.1,0.3-0.1c0.1,0,0.2,0,0.4,0.1s0.3,0.2,0.5,0.3
	c0.2,0.1,0.4,0.2,0.6,0.3c0.3,0.1,0.6,0.1,0.9,0.1c0.3,0,0.6,0,0.8-0.1c0.2-0.1,0.4-0.2,0.6-0.3c0.2-0.1,0.3-0.3,0.3-0.5
	c0.1-0.2,0.1-0.4,0.1-0.6c0-0.3-0.1-0.5-0.2-0.6c-0.1-0.2-0.3-0.3-0.6-0.4c-0.2-0.1-0.5-0.2-0.8-0.3c-0.3-0.1-0.6-0.2-0.9-0.3
	c-0.3-0.1-0.6-0.2-0.9-0.3c-0.3-0.1-0.6-0.3-0.8-0.5c-0.2-0.2-0.4-0.4-0.6-0.7c-0.1-0.3-0.2-0.6-0.2-1.1c0-0.4,0.1-0.7,0.2-1.1
	c0.2-0.3,0.4-0.6,0.7-0.9c0.3-0.3,0.7-0.5,1.1-0.6c0.4-0.2,0.9-0.2,1.5-0.2c0.6,0,1.2,0.1,1.7,0.3c0.5,0.2,1,0.5,1.3,0.8L120.3,59.6
	z M124.7,59.1c0.4-0.4,0.8-0.7,1.3-1c0.5-0.3,1-0.4,1.7-0.4c0.5,0,1,0.1,1.4,0.3c0.4,0.2,0.7,0.4,1,0.7c0.3,0.3,0.5,0.7,0.6,1.1
	c0.1,0.4,0.2,0.9,0.2,1.5v6.1h-1.8v-6.1c0-0.7-0.2-1.2-0.5-1.6c-0.3-0.4-0.8-0.6-1.4-0.6c-0.5,0-0.9,0.1-1.3,0.3
	c-0.4,0.2-0.8,0.5-1.1,0.9v7h-1.8V53.6h1.8V59.1z M137.5,57.8c0.7,0,1.3,0.1,1.9,0.3c0.6,0.2,1.1,0.6,1.4,1c0.4,0.4,0.7,0.9,0.9,1.5
	c0.2,0.6,0.3,1.3,0.3,2c0,0.8-0.1,1.4-0.3,2c-0.2,0.6-0.5,1.1-0.9,1.5c-0.4,0.4-0.9,0.8-1.4,1c-0.6,0.2-1.2,0.3-1.9,0.3
	c-0.7,0-1.3-0.1-1.9-0.3c-0.6-0.2-1-0.6-1.4-1c-0.4-0.4-0.7-0.9-0.9-1.5c-0.2-0.6-0.3-1.3-0.3-2c0-0.8,0.1-1.4,0.3-2
	c0.2-0.6,0.5-1.1,0.9-1.5c0.4-0.4,0.9-0.8,1.4-1C136.1,57.9,136.8,57.8,137.5,57.8z M137.5,66.2c0.9,0,1.6-0.3,2-0.9
	c0.4-0.6,0.7-1.5,0.7-2.6c0-1.1-0.2-2-0.7-2.6c-0.4-0.6-1.1-0.9-2-0.9c-0.9,0-1.6,0.3-2,0.9c-0.4,0.6-0.7,1.5-0.7,2.6
	c0,1.1,0.2,2,0.7,2.6C135.9,65.9,136.5,66.2,137.5,66.2z M145.9,65.1c0.3,0.4,0.6,0.7,1,0.8c0.4,0.2,0.7,0.2,1.2,0.2
	c0.8,0,1.5-0.3,1.9-0.9c0.5-0.6,0.7-1.5,0.7-2.6c0-0.6-0.1-1.1-0.2-1.5c-0.1-0.4-0.3-0.8-0.4-1.1c-0.2-0.3-0.4-0.5-0.7-0.6
	c-0.3-0.1-0.6-0.2-1-0.2c-0.5,0-1,0.1-1.4,0.4c-0.4,0.2-0.7,0.6-1.1,1V65.1z M145.8,59.3c0.2-0.2,0.4-0.5,0.6-0.6
	c0.2-0.2,0.5-0.4,0.7-0.5c0.3-0.1,0.5-0.3,0.8-0.3c0.3-0.1,0.6-0.1,1-0.1c0.5,0,1,0.1,1.5,0.3c0.4,0.2,0.8,0.5,1.1,0.9
	c0.3,0.4,0.6,0.9,0.7,1.5c0.2,0.6,0.3,1.3,0.3,2.1c0,0.7-0.1,1.4-0.3,2c-0.2,0.6-0.5,1.1-0.8,1.6c-0.4,0.4-0.8,0.8-1.3,1.1
	c-0.5,0.3-1.1,0.4-1.7,0.4c-0.6,0-1.1-0.1-1.5-0.3c-0.4-0.2-0.8-0.5-1.1-0.8v4.1h-1.8V57.9h1.1c0.3,0,0.4,0.1,0.5,0.4L145.8,59.3z"
	/>
</svg>
