<?xml version="1.0" encoding="utf-8"?>
<!-- Generator: Adobe Illustrator 25.2.0, SVG Export Plug-In . SVG Version: 6.00 Build 0)  -->
<svg version="1.1" id="Layer_1" xmlns="http://www.w3.org/2000/svg" xmlns:xlink="http://www.w3.org/1999/xlink" x="0px" y="0px"
	 viewBox="0 0 732 429.1" style="enable-background:new 0 0 732 429.1;" xml:space="preserve">
<style type="text/css">
	.st0{fill-rule:evenodd;clip-rule:evenodd;fill:#FFFFFF;}
	.st1{fill:#FFFFFF;}
</style>
<path class="st0" d="M601.9,369c-16.6,0-30,13.5-30,30c0,16.6,13.4,30,30,30c16.6,0,30-13.5,30-30C631.9,382.5,618.4,369,601.9,369z
	"/>
<path class="st0" d="M486.9,369c-16.6,0-30,13.5-30,30c0,16.6,13.4,30,30,30c16.6,0,30-13.5,30-30C516.9,382.5,503.4,369,486.9,369z
	"/>
<path class="st0" d="M718.2,102.9H404.5l-8.4-62.7c-1.2-9.1-6.3-12.9-15.3-12.9H319c-8.3,0-15,6.7-15,15c0,8.3,6.7,15,15,15H368
	L403,270.9c5.9,36.8,14.2,72.3,62,72.3h165.2c48.4,0,53.7-34.5,62.3-69.3l36.9-147.4C732.2,115.1,732.9,102.9,718.2,102.9z
	 M688.2,170.9H483.9c-8.3,0-15,6.8-15,15c0,8.3,6.7,15,15,15h196.8l-8.5,34.3H520.6c-8.3,0-15,6.8-15,15c0,8.3,6.8,15,15,15h144.1
	l-1.6,6.4c-4.7,19-5.8,41.5-32.9,41.5H465c-28.6,0-29.3-25.7-32.7-46.2L410,132.8h287.7L688.2,170.9z"/>
<path class="st1" d="M41.3,24.7c0-6.9-5.6-12.6-12.6-12.6c-6.9,0-12.6,5.6-12.6,12.6v386.1c0,6.9,5.6,12.6,12.6,12.6
	c6.9,0,12.6-5.6,12.6-12.6L41.3,24.7z"/>
</svg>
